<svg xmlns="http://www.w3.org/2000/svg" version="1.0" width="512.000000pt" height="512.000000pt" viewBox="0 0 512.000000 512.000000" preserveAspectRatio="xMidYMid meet">
<metadata>
</metadata>
<g transform="translate(0.000000,512.000000) scale(0.100000,-0.100000)" fill="#FF0000" stroke="none">
<path d="M805 5096 c-61 -29 -117 -84 -147 -145 l-23 -46 0 -2345 0 -2345 23 -46 c30 -61 86 -116 147 -145 l50 -24 1705 0 1705 0 50 24 c61 29 117 84 147 145 l23 46 3 2015 2 2015 -437 437 -438 438 -1380 0 -1380 0 -50 -24z m3473 -844 c-29 -2 -138 -2 -243 0 -185 3 -192 4 -247 31 -69 34 -121 91 -148 164 -18 48 -20 78 -20 286 l0 232 355 -355 355 -355 -52 -3z m-2501 -2588 c139 -28 209 -80 260 -189 26 -55 28 -69 28 -180 0 -109 -2 -125 -26 -176 -69 -147 -208 -208 -471 -209 l-128 0 0 -150 0 -150 -115 0 -115 0 0 535 0 535 245 0 c185 0 265 -4 322 -16z m1010 -6 c202 -60 331 -199 363 -390 16 -92 8 -234 -18 -309 -41 -124 -119 -218 -229 -276 -110 -59 -151 -65 -455 -70 l-278 -5 0 537 0 537 283 -5 c213 -3 295 -8 334 -19z m1243 -78 l0 -100 -255 0 -255 0 0 -125 0 -125 240 0 240 0 0 -100 0 -100 -240 0 -240 0 0 -210 0 -210 -115 0 -115 0 0 535 0 535 370 0 370 0 0 -100z"/>
<path d="M1440 1295 l0 -187 138 4 c154 3 190 16 225 76 30 50 34 148 10 203 -31 70 -67 83 -235 87 l-138 4 0 -187z"/>
<path d="M2400 1145 l0 -335 123 0 c179 0 254 25 331 110 46 51 68 127 67 233 0 175 -75 277 -230 313 -31 8 -109 14 -173 14 l-118 0 0 -335z"/>
</g>
</svg>